<svg width="24" height="23" viewBox="0 0 24 23" fill="none" xmlns="http://www.w3.org/2000/svg">
<path d="M5.53125 0C5.9282 0 6.25 0.321795 6.25 0.71875V1.4375H17.75V0.71875C17.75 0.321795 18.0718 0 18.4688 0C18.8657 0 19.1875 0.321795 19.1875 0.71875V1.4375H20.625C22.2128 1.4375 23.5 2.72468 23.5 4.3125V20.125C23.5 21.7128 22.2128 23 20.625 23H3.375C1.78718 23 0.5 21.7128 0.5 20.125V4.3125C0.5 2.72468 1.78718 1.4375 3.375 1.4375H4.8125V0.71875C4.8125 0.321795 5.1343 0 5.53125 0ZM3.375 2.875C2.58109 2.875 1.9375 3.51859 1.9375 4.3125V5.75H22.0625V4.3125C22.0625 3.51859 21.4189 2.875 20.625 2.875H3.375ZM22.0625 7.1875H1.9375V20.125C1.9375 20.9189 2.58109 21.5625 3.375 21.5625H20.625C21.4189 21.5625 22.0625 20.9189 22.0625 20.125V7.1875Z" fill="#1F2937"/>
<path d="M16.3125 10.7812C16.3125 10.3843 16.6343 10.0625 17.0312 10.0625H18.4688C18.8657 10.0625 19.1875 10.3843 19.1875 10.7812V12.2188C19.1875 12.6157 18.8657 12.9375 18.4688 12.9375H17.0312C16.6343 12.9375 16.3125 12.6157 16.3125 12.2188V10.7812Z" fill="#1F2937"/>
<path d="M12 10.7812C12 10.3843 12.3218 10.0625 12.7188 10.0625H14.1562C14.5532 10.0625 14.875 10.3843 14.875 10.7812V12.2188C14.875 12.6157 14.5532 12.9375 14.1562 12.9375H12.7188C12.3218 12.9375 12 12.6157 12 12.2188V10.7812Z" fill="#1F2937"/>
<path d="M9.125 15.0938C9.125 14.6968 9.4468 14.375 9.84375 14.375H11.2812C11.6782 14.375 12 14.6968 12 15.0938V16.5312C12 16.9282 11.6782 17.25 11.2812 17.25H9.84375C9.4468 17.25 9.125 16.9282 9.125 16.5312V15.0938Z" fill="#1F2937"/>
<path d="M4.8125 15.0938C4.8125 14.6968 5.1343 14.375 5.53125 14.375H6.96875C7.3657 14.375 7.6875 14.6968 7.6875 15.0938V16.5312C7.6875 16.9282 7.3657 17.25 6.96875 17.25H5.53125C5.1343 17.25 4.8125 16.9282 4.8125 16.5312V15.0938Z" fill="#1F2937"/>
</svg>
