<svg width="21" height="21" viewBox="0 0 21 21" fill="none" xmlns="http://www.w3.org/2000/svg">
<rect width="21" height="21" rx="10.5" fill="#5664C4"/>
<path d="M7.22781 8.78339C7.08194 8.92925 7 9.12708 7 9.33336V12.8334C7 13.0396 7.08194 13.2375 7.22781 13.3833C7.37367 13.5292 7.5715 13.6111 7.77778 13.6111H13.2222C13.4285 13.6111 13.6263 13.5292 13.7722 13.3833C13.9181 13.2375 14 13.0396 14 12.8334V9.33336C14 9.12708 13.9181 8.92925 13.7722 8.78339C13.6263 8.63753 13.4285 8.55558 13.2222 8.55558H12.8606C12.7325 8.5556 12.6065 8.52402 12.4936 8.46365C12.3807 8.40327 12.2845 8.31596 12.2134 8.20947L11.8977 7.73503C11.8266 7.62854 11.7304 7.54123 11.6175 7.48085C11.5046 7.42048 11.3786 7.3889 11.2506 7.38892H9.74944C9.62143 7.3889 9.49539 7.42048 9.3825 7.48085C9.26962 7.54123 9.17338 7.62854 9.10233 7.73503L8.78656 8.20947C8.71551 8.31596 8.61927 8.40327 8.50639 8.46365C8.3935 8.52402 8.26746 8.5556 8.13944 8.55558H7.77778C7.5715 8.55558 7.37367 8.63753 7.22781 8.78339Z" stroke="white" stroke-width="0.777778" stroke-linecap="round" stroke-linejoin="round"/>
<path d="M11.3249 11.7138C11.5437 11.495 11.6666 11.1983 11.6666 10.8888C11.6666 10.5794 11.5437 10.2827 11.3249 10.0639C11.1061 9.84508 10.8093 9.72217 10.4999 9.72217C10.1905 9.72217 9.89375 9.84508 9.67496 10.0639C9.45617 10.2827 9.33325 10.5794 9.33325 10.8888C9.33325 11.1983 9.45617 11.495 9.67496 11.7138C9.89375 11.9326 10.1905 12.0555 10.4999 12.0555C10.8093 12.0555 11.1061 11.9326 11.3249 11.7138Z" stroke="white" stroke-width="0.777778" stroke-linecap="round" stroke-linejoin="round"/>
</svg>
