<svg width="88" height="32" viewBox="0 0 88 32" fill="none" xmlns="http://www.w3.org/2000/svg">
<path d="M4.25 20H1.55682V11.2727H4.36932C5.21591 11.2727 5.94034 11.4474 6.54261 11.7969C7.14489 12.1435 7.60653 12.642 7.92756 13.2926C8.24858 13.9403 8.40909 14.7159 8.40909 15.6193C8.40909 16.5284 8.24716 17.3111 7.9233 17.9673C7.59943 18.6207 7.12784 19.1236 6.50852 19.4759C5.8892 19.8253 5.13636 20 4.25 20ZM2.61364 19.0625H4.18182C4.90341 19.0625 5.50142 18.9233 5.97585 18.6449C6.45028 18.3665 6.80398 17.9702 7.03693 17.456C7.26989 16.9418 7.38636 16.3295 7.38636 15.6193C7.38636 14.9148 7.27131 14.3082 7.04119 13.7997C6.81108 13.2884 6.46733 12.8963 6.00994 12.6236C5.55256 12.348 4.98295 12.2102 4.30114 12.2102H2.61364V19.0625ZM12.7898 20.1364C12.1591 20.1364 11.6151 19.9972 11.1577 19.7188C10.7031 19.4375 10.3523 19.0455 10.1051 18.5426C9.8608 18.0369 9.73864 17.4489 9.73864 16.7784C9.73864 16.108 9.8608 15.517 10.1051 15.0057C10.3523 14.4915 10.696 14.0909 11.1364 13.804C11.5795 13.5142 12.0966 13.3693 12.6875 13.3693C13.0284 13.3693 13.3651 13.4261 13.6974 13.5398C14.0298 13.6534 14.3324 13.8381 14.6051 14.0938C14.8778 14.3466 15.0952 14.6818 15.2571 15.0994C15.419 15.517 15.5 16.0312 15.5 16.642V17.0682H10.4545V16.1989H14.4773C14.4773 15.8295 14.4034 15.5 14.2557 15.2102C14.1108 14.9205 13.9034 14.6918 13.6335 14.5241C13.3665 14.3565 13.0511 14.2727 12.6875 14.2727C12.2869 14.2727 11.9403 14.3722 11.6477 14.571C11.358 14.767 11.1349 15.0227 10.9787 15.3381C10.8224 15.6534 10.7443 15.9915 10.7443 16.3523V16.9318C10.7443 17.4261 10.8295 17.8452 11 18.1889C11.1733 18.5298 11.4134 18.7898 11.7202 18.9688C12.027 19.1449 12.3835 19.233 12.7898 19.233C13.054 19.233 13.2926 19.196 13.5057 19.1222C13.7216 19.0455 13.9077 18.9318 14.0639 18.7812C14.2202 18.6278 14.3409 18.4375 14.4261 18.2102L15.3977 18.483C15.2955 18.8125 15.1236 19.1023 14.8821 19.3523C14.6406 19.5994 14.3423 19.7926 13.9872 19.9318C13.6321 20.0682 13.233 20.1364 12.7898 20.1364ZM21.6662 14.9205L20.7628 15.1761C20.706 15.0256 20.6222 14.8793 20.5114 14.7372C20.4034 14.5923 20.2557 14.473 20.0682 14.3793C19.8807 14.2855 19.6406 14.2386 19.348 14.2386C18.9474 14.2386 18.6136 14.331 18.3466 14.5156C18.0824 14.6974 17.9503 14.929 17.9503 15.2102C17.9503 15.4602 18.0412 15.6577 18.223 15.8026C18.4048 15.9474 18.6889 16.0682 19.0753 16.1648L20.0469 16.4034C20.6321 16.5455 21.0682 16.7628 21.3551 17.0554C21.642 17.3452 21.7855 17.7187 21.7855 18.1761C21.7855 18.5511 21.6776 18.8864 21.4616 19.1818C21.2486 19.4773 20.9503 19.7102 20.5668 19.8807C20.1832 20.0511 19.7372 20.1364 19.2287 20.1364C18.5611 20.1364 18.0085 19.9915 17.571 19.7017C17.1335 19.4119 16.8565 18.9886 16.7401 18.4318L17.6946 18.1932C17.7855 18.5455 17.9574 18.8097 18.2102 18.9858C18.4659 19.1619 18.7997 19.25 19.2116 19.25C19.6804 19.25 20.0526 19.1506 20.3281 18.9517C20.6065 18.75 20.7457 18.5085 20.7457 18.2273C20.7457 18 20.6662 17.8097 20.5071 17.6562C20.348 17.5 20.1037 17.3835 19.7741 17.3068L18.6832 17.0511C18.0838 16.9091 17.6435 16.6889 17.3622 16.3906C17.0838 16.0895 16.9446 15.7131 16.9446 15.2614C16.9446 14.892 17.0483 14.5653 17.2557 14.2812C17.4659 13.9972 17.7514 13.7741 18.1122 13.6122C18.4759 13.4503 18.8878 13.3693 19.348 13.3693C19.9957 13.3693 20.5043 13.5114 20.8736 13.7955C21.2457 14.0795 21.5099 14.4545 21.6662 14.9205ZM25.9585 20.1364C25.3448 20.1364 24.8164 19.9915 24.3732 19.7017C23.93 19.4119 23.5891 19.0128 23.3505 18.5043C23.1119 17.9957 22.9925 17.4148 22.9925 16.7614C22.9925 16.0966 23.1147 15.5099 23.359 15.0014C23.6062 14.4901 23.9499 14.0909 24.3903 13.804C24.8335 13.5142 25.3505 13.3693 25.9414 13.3693C26.4016 13.3693 26.8164 13.4545 27.1857 13.625C27.555 13.7955 27.8576 14.0341 28.0934 14.3409C28.3292 14.6477 28.4755 15.0057 28.5323 15.4148H27.5266C27.4499 15.1165 27.2795 14.8523 27.0153 14.6222C26.7539 14.3892 26.4016 14.2727 25.9585 14.2727C25.5664 14.2727 25.2227 14.375 24.9272 14.5795C24.6346 14.7812 24.4059 15.0668 24.2411 15.4361C24.0792 15.8026 23.9982 16.233 23.9982 16.7273C23.9982 17.233 24.0778 17.6733 24.2369 18.0483C24.3988 18.4233 24.6261 18.7145 24.9187 18.9219C25.2141 19.1293 25.5607 19.233 25.9585 19.233C26.2198 19.233 26.457 19.1875 26.6701 19.0966C26.8832 19.0057 27.0636 18.875 27.2113 18.7045C27.359 18.5341 27.4641 18.3295 27.5266 18.0909H28.5323C28.4755 18.4773 28.3349 18.8253 28.1104 19.1349C27.8888 19.4418 27.5948 19.6861 27.2283 19.8679C26.8647 20.0469 26.4414 20.1364 25.9585 20.1364ZM31.9286 20.1534C31.5138 20.1534 31.1374 20.0753 30.7994 19.919C30.4613 19.7599 30.1928 19.5312 29.994 19.233C29.7951 18.9318 29.6957 18.5682 29.6957 18.142C29.6957 17.767 29.7695 17.4631 29.9173 17.2301C30.065 16.9943 30.2624 16.8097 30.5096 16.6761C30.7567 16.5426 31.0295 16.4432 31.3278 16.3778C31.6289 16.3097 31.9315 16.2557 32.2354 16.2159C32.6332 16.1648 32.9556 16.1264 33.2028 16.1009C33.4528 16.0724 33.6346 16.0256 33.7482 15.9602C33.8647 15.8949 33.9229 15.7812 33.9229 15.6193V15.5852C33.9229 15.1648 33.8079 14.8381 33.5778 14.6051C33.3505 14.3722 33.0053 14.2557 32.5423 14.2557C32.0621 14.2557 31.6857 14.3608 31.413 14.571C31.1403 14.7812 30.9485 15.0057 30.8377 15.2443L29.8832 14.9034C30.0536 14.5057 30.2809 14.196 30.565 13.9744C30.8519 13.75 31.1644 13.5937 31.5025 13.5057C31.8434 13.4148 32.1786 13.3693 32.5082 13.3693C32.7184 13.3693 32.9599 13.3949 33.2326 13.446C33.5082 13.4943 33.7738 13.5952 34.0295 13.7486C34.288 13.902 34.5025 14.1335 34.6729 14.4432C34.8434 14.7528 34.9286 15.1676 34.9286 15.6875V20H33.9229V19.1136H33.8718C33.8036 19.2557 33.69 19.4077 33.5309 19.5696C33.3718 19.7315 33.1602 19.8693 32.896 19.983C32.6317 20.0966 32.3093 20.1534 31.9286 20.1534ZM32.082 19.25C32.4798 19.25 32.815 19.1719 33.0877 19.0156C33.3633 18.8594 33.5707 18.6577 33.7099 18.4105C33.8519 18.1634 33.9229 17.9034 33.9229 17.6307V16.7102C33.8803 16.7614 33.7866 16.8082 33.6417 16.8509C33.4996 16.8906 33.3349 16.9261 33.1474 16.9574C32.9627 16.9858 32.7823 17.0114 32.6062 17.0341C32.4329 17.054 32.2923 17.071 32.1843 17.0852C31.9229 17.1193 31.6786 17.1747 31.4513 17.2514C31.2269 17.3253 31.0451 17.4375 30.9059 17.5881C30.7695 17.7358 30.7013 17.9375 30.7013 18.1932C30.7013 18.5426 30.8306 18.8068 31.0891 18.9858C31.3505 19.1619 31.6815 19.25 32.082 19.25ZM36.7642 20V13.4545H37.7358V14.4432H37.804C37.9233 14.1193 38.1392 13.8565 38.4517 13.6548C38.7642 13.4531 39.1165 13.3523 39.5085 13.3523C39.5824 13.3523 39.6747 13.3537 39.7855 13.3565C39.8963 13.3594 39.9801 13.3636 40.0369 13.3693V14.392C40.0028 14.3835 39.9247 14.3707 39.8026 14.3537C39.6832 14.3338 39.5568 14.3239 39.4233 14.3239C39.1051 14.3239 38.821 14.3906 38.571 14.5241C38.3239 14.6548 38.1278 14.8366 37.983 15.0696C37.8409 15.2997 37.7699 15.5625 37.7699 15.858V20H36.7642ZM43.6719 22.5909C43.1861 22.5909 42.7685 22.5284 42.419 22.4034C42.0696 22.2812 41.7784 22.1193 41.5455 21.9176C41.3153 21.7188 41.1321 21.5057 40.9957 21.2784L41.7969 20.7159C41.8878 20.8352 42.0028 20.9716 42.142 21.125C42.2813 21.2812 42.4716 21.4162 42.7131 21.5298C42.9574 21.6463 43.277 21.7045 43.6719 21.7045C44.2003 21.7045 44.6364 21.5767 44.9801 21.321C45.3239 21.0653 45.4957 20.6648 45.4957 20.1193V18.7898H45.4105C45.3366 18.9091 45.2315 19.0568 45.0952 19.233C44.9616 19.4062 44.7685 19.5611 44.5156 19.6974C44.2656 19.831 43.9276 19.8977 43.5014 19.8977C42.973 19.8977 42.4986 19.7727 42.0781 19.5227C41.6605 19.2727 41.3295 18.9091 41.0852 18.4318C40.8438 17.9545 40.723 17.375 40.723 16.6932C40.723 16.0227 40.8409 15.4389 41.0767 14.9418C41.3125 14.4418 41.6406 14.0554 42.0611 13.7827C42.4815 13.5071 42.9673 13.3693 43.5185 13.3693C43.9446 13.3693 44.2827 13.4403 44.5327 13.5824C44.7855 13.7216 44.9787 13.8807 45.1122 14.0597C45.2486 14.2358 45.3537 14.3807 45.4276 14.4943H45.5298V13.4545H46.5014V20.1875C46.5014 20.75 46.3736 21.2074 46.1179 21.5597C45.8651 21.9148 45.5241 22.1747 45.0952 22.3395C44.669 22.5071 44.1946 22.5909 43.6719 22.5909ZM43.6378 18.9943C44.0412 18.9943 44.3821 18.902 44.6605 18.7173C44.9389 18.5327 45.1506 18.267 45.2955 17.9205C45.4403 17.5739 45.5128 17.1591 45.5128 16.6761C45.5128 16.2045 45.4418 15.7884 45.2997 15.4276C45.1577 15.0668 44.9474 14.7841 44.669 14.5795C44.3906 14.375 44.0469 14.2727 43.6378 14.2727C43.2116 14.2727 42.8565 14.3807 42.5724 14.5966C42.2912 14.8125 42.0795 15.1023 41.9375 15.4659C41.7983 15.8295 41.7287 16.233 41.7287 16.6761C41.7287 17.1307 41.7997 17.5327 41.9418 17.8821C42.0866 18.2287 42.2997 18.5014 42.581 18.7003C42.8651 18.8963 43.2173 18.9943 43.6378 18.9943ZM50.2685 20.1534C49.8537 20.1534 49.4773 20.0753 49.1392 19.919C48.8011 19.7599 48.5327 19.5312 48.3338 19.233C48.1349 18.9318 48.0355 18.5682 48.0355 18.142C48.0355 17.767 48.1094 17.4631 48.2571 17.2301C48.4048 16.9943 48.6023 16.8097 48.8494 16.6761C49.0966 16.5426 49.3693 16.4432 49.6676 16.3778C49.9688 16.3097 50.2713 16.2557 50.5753 16.2159C50.973 16.1648 51.2955 16.1264 51.5426 16.1009C51.7926 16.0724 51.9744 16.0256 52.0881 15.9602C52.2045 15.8949 52.2628 15.7812 52.2628 15.6193V15.5852C52.2628 15.1648 52.1477 14.8381 51.9176 14.6051C51.6903 14.3722 51.3452 14.2557 50.8821 14.2557C50.402 14.2557 50.0256 14.3608 49.7528 14.571C49.4801 14.7812 49.2884 15.0057 49.1776 15.2443L48.223 14.9034C48.3935 14.5057 48.6207 14.196 48.9048 13.9744C49.1918 13.75 49.5043 13.5937 49.8423 13.5057C50.1832 13.4148 50.5185 13.3693 50.848 13.3693C51.0582 13.3693 51.2997 13.3949 51.5724 13.446C51.848 13.4943 52.1136 13.5952 52.3693 13.7486C52.6278 13.902 52.8423 14.1335 53.0128 14.4432C53.1832 14.7528 53.2685 15.1676 53.2685 15.6875V20H52.2628V19.1136H52.2116C52.1435 19.2557 52.0298 19.4077 51.8707 19.5696C51.7116 19.7315 51.5 19.8693 51.2358 19.983C50.9716 20.0966 50.6491 20.1534 50.2685 20.1534ZM50.4219 19.25C50.8196 19.25 51.1548 19.1719 51.4276 19.0156C51.7031 18.8594 51.9105 18.6577 52.0497 18.4105C52.1918 18.1634 52.2628 17.9034 52.2628 17.6307V16.7102C52.2202 16.7614 52.1264 16.8082 51.9815 16.8509C51.8395 16.8906 51.6747 16.9261 51.4872 16.9574C51.3026 16.9858 51.1222 17.0114 50.946 17.0341C50.7727 17.054 50.6321 17.071 50.5241 17.0852C50.2628 17.1193 50.0185 17.1747 49.7912 17.2514C49.5668 17.3253 49.3849 17.4375 49.2457 17.5881C49.1094 17.7358 49.0412 17.9375 49.0412 18.1932C49.0412 18.5426 49.1705 18.8068 49.429 18.9858C49.6903 19.1619 50.0213 19.25 50.4219 19.25ZM55.104 20V13.4545H56.0756V14.4432H56.1438C56.2631 14.1193 56.479 13.8565 56.7915 13.6548C57.104 13.4531 57.4563 13.3523 57.8484 13.3523C57.9222 13.3523 58.0146 13.3537 58.1254 13.3565C58.2362 13.3594 58.32 13.3636 58.3768 13.3693V14.392C58.3427 14.3835 58.2646 14.3707 58.1424 14.3537C58.0231 14.3338 57.8967 14.3239 57.7631 14.3239C57.445 14.3239 57.1609 14.3906 56.9109 14.5241C56.6637 14.6548 56.4677 14.8366 56.3228 15.0696C56.1808 15.2997 56.1097 15.5625 56.1097 15.858V20H55.104Z" fill="#5664C4"/>
<path d="M70.8333 19.3333V20.1666C70.8333 20.8296 71.0967 21.4655 71.5655 21.9344C72.0344 22.4032 72.6703 22.6666 73.3333 22.6666H81.6666C82.3297 22.6666 82.9656 22.4032 83.4344 21.9344C83.9033 21.4655 84.1666 20.8296 84.1666 20.1666V19.3333M80.8333 15.9999L77.5 19.3333M77.5 19.3333L74.1666 15.9999M77.5 19.3333V9.33325" stroke="#5664C4" stroke-width="2" stroke-linecap="round" stroke-linejoin="round"/>
</svg>
