<svg width="22" height="22" viewBox="0 0 22 22" fill="none" xmlns="http://www.w3.org/2000/svg">
<path d="M10.0834 4.5834H5.50008C5.01385 4.5834 4.54754 4.77656 4.20372 5.12037C3.8599 5.46419 3.66675 5.9305 3.66675 6.41673V16.5001C3.66675 16.9863 3.8599 17.4526 4.20372 17.7964C4.54754 18.1402 5.01385 18.3334 5.50008 18.3334H15.5834C16.0696 18.3334 16.536 18.1402 16.8798 17.7964C17.2236 17.4526 17.4167 16.9863 17.4167 16.5001V11.9167M16.1206 3.28723C16.2897 3.11213 16.492 2.97246 16.7157 2.87638C16.9393 2.7803 17.1799 2.72972 17.4233 2.72761C17.6668 2.72549 17.9082 2.77188 18.1335 2.86406C18.3588 2.95624 18.5635 3.09237 18.7356 3.26451C18.9078 3.43665 19.0439 3.64134 19.1361 3.86665C19.2283 4.09196 19.2747 4.33337 19.2725 4.5768C19.2704 4.82023 19.2199 5.0608 19.1238 5.28448C19.0277 5.50815 18.888 5.71045 18.7129 5.87957L10.8424 13.7501H8.25008V11.1577L16.1206 3.28723Z" stroke="#374151" stroke-width="2" stroke-linecap="round" stroke-linejoin="round"/>
</svg>
