<svg width="20" height="20" viewBox="0 0 20 20" fill="none" xmlns="http://www.w3.org/2000/svg">
<path d="M10 3.43506L9.10406 2.51416C6.99863 0.350083 3.14268 1.09712 1.75045 3.81605C1.14721 4.99412 0.974763 6.65349 1.88532 8.75H0.537804C-2.12253 1.62857 5.74313 -2.28724 9.7804 1.42885C9.85493 1.49746 9.92816 1.56867 10 1.64251C10.0718 1.56867 10.1451 1.49747 10.2196 1.42886C14.2569 -2.28725 22.1225 1.62856 19.4622 8.75H18.1147C19.0252 6.65349 18.8528 4.99412 18.2496 3.81605C16.8573 1.09712 13.0014 0.350083 10.8959 2.51416L10 3.43506Z" fill="black"/>
<path d="M2.76508 12.5H4.40867C5.74132 13.9791 7.56416 15.5724 10 17.2432C12.4358 15.5724 14.2587 13.9791 15.5913 12.5H17.2349C15.6533 14.4581 13.3104 16.5626 10 18.75C6.6896 16.5626 4.34668 14.4581 2.76508 12.5Z" fill="black"/>
<path d="M13.0803 4.14288C12.981 3.89474 12.735 3.73716 12.4681 3.75082C12.2012 3.76447 11.9725 3.94632 11.899 4.2033L9.90131 11.1954L8.0803 6.64288C7.9941 6.42738 7.79558 6.2774 7.56473 6.25336C7.33387 6.22932 7.10871 6.33519 6.97997 6.52831L4.66551 10H0.625C0.279822 10 2.73427e-09 10.2798 2.73427e-09 10.625C2.73427e-09 10.9702 0.279822 11.25 0.625 11.25H5C5.20897 11.25 5.40412 11.1456 5.52003 10.9717L7.36097 8.21028L9.4197 13.3571C9.51896 13.6053 9.76501 13.7628 10.0319 13.7492C10.2988 13.7355 10.5275 13.5537 10.601 13.2967L12.5987 6.3046L14.4197 10.8571C14.5146 11.0944 14.7444 11.25 15 11.25H19.375C19.7202 11.25 20 10.9702 20 10.625C20 10.2798 19.7202 10 19.375 10H15.4231L13.0803 4.14288Z" fill="black"/>
</svg>
