<svg width="20" height="20" viewBox="0 0 20 20" fill="none" xmlns="http://www.w3.org/2000/svg">
<path d="M2.5 7.59663V5.51079C2.5 5.12857 2.62861 4.80913 2.88583 4.55246C3.14306 4.29579 3.46306 4.16718 3.84583 4.16663H16.1542C16.5375 4.16663 16.8575 4.29524 17.1142 4.55246C17.3708 4.80968 17.4994 5.12996 17.5 5.51329V10.0966H16.6667V5.51329C16.6667 5.38496 16.6133 5.26718 16.5067 5.15996C16.4 5.05274 16.2825 4.9994 16.1542 4.99996H3.84583C3.71806 4.99996 3.60056 5.05329 3.49333 5.15996C3.38611 5.26663 3.33278 5.3844 3.33333 5.51329V7.59663H2.5ZM3.84667 15.8333C3.46278 15.8333 3.1425 15.705 2.88583 15.4483C2.62917 15.1916 2.50056 14.8719 2.5 14.4891V12.4041H3.33333V14.4875C3.33333 14.6152 3.38667 14.7327 3.49333 14.84C3.6 14.9472 3.7175 15.0005 3.84583 15H8.42917V15.8333H3.84667ZM5.83333 13.75C5.74444 13.75 5.66806 13.7333 5.60417 13.7C5.54028 13.6661 5.48944 13.61 5.45167 13.5316L3.90167 10.4166H2.5V9.58329H4.16667C4.24111 9.58329 4.31222 9.60274 4.38 9.64163C4.44778 9.68052 4.49833 9.73885 4.53167 9.81663L5.83333 12.405L8.785 6.48496C8.82056 6.42107 8.87361 6.37302 8.94417 6.34079C9.01472 6.30857 9.08889 6.29218 9.16667 6.29163C9.24444 6.29107 9.31667 6.30718 9.38333 6.33996C9.45 6.37274 9.49972 6.42079 9.5325 6.48413L11.37 10.165C11.2283 10.1927 11.0922 10.2288 10.9617 10.2733C10.8311 10.3177 10.7097 10.3816 10.5975 10.465L9.15083 7.61246L6.19917 13.5325C6.16139 13.6102 6.10944 13.6658 6.04333 13.6991C5.97667 13.733 5.90667 13.75 5.83333 13.75ZM10.7692 18.3333C10.5553 18.3333 10.3736 18.2583 10.2242 18.1083C10.0747 17.9583 10 17.7772 10 17.565V14.935L11.04 12.2383C11.105 12.07 11.2111 11.9327 11.3583 11.8266C11.5061 11.7205 11.67 11.6675 11.85 11.6675H13.75V9.58413H14.5833V11.6666H16.4517C16.6294 11.6666 16.7908 11.7194 16.9358 11.825C17.0808 11.93 17.1892 12.0622 17.2608 12.2216L18.3333 14.9333V17.5633C18.3333 17.7772 18.2583 17.9588 18.1083 18.1083C17.9583 18.2577 17.7769 18.3325 17.5642 18.3325H15.7058C15.4914 18.3325 15.3094 18.2575 15.16 18.1075C15.0106 17.9575 14.9358 17.7761 14.9358 17.5633V16.3458H15.7692V17.5H17.5V15.0816L16.4833 12.5H14.5833V13.4475L15.7825 14.6666L15.1925 15.2566L14.1592 14.215L13.125 15.2566L12.535 14.6666L13.75 13.4633V12.5H11.8167L10.8333 15.0816V17.5H12.5642V16.3466H13.3975V17.5C13.3975 17.7316 13.3164 17.9283 13.1542 18.09C12.9925 18.2522 12.7958 18.3333 12.5642 18.3333H10.7692Z" fill="black"/>
</svg>
