<svg width="17" height="18" viewBox="0 0 17 18" fill="none" xmlns="http://www.w3.org/2000/svg">
<path d="M9 6.03437V7.13484L9.95302 6.58461L10.453 7.45064L9.49998 8.00088L10.453 8.55112L9.95303 9.41714L9 8.86691V9.96738H8V8.86689L7.04694 9.41714L6.54694 8.55112L7.49998 8.00088L6.54694 7.45064L7.04694 6.58461L8 7.13486V6.03437H9Z" fill="#5664C4"/>
<path d="M13.75 10C13.6119 10 13.5 10.1119 13.5 10.25V10.75C13.5 10.8881 13.6119 11 13.75 11H14.25C14.3881 11 14.5 10.8881 14.5 10.75V10.25C14.5 10.1119 14.3881 10 14.25 10H13.75Z" fill="#5664C4"/>
<path d="M13.5 12.25C13.5 12.1119 13.6119 12 13.75 12H14.25C14.3881 12 14.5 12.1119 14.5 12.25V12.75C14.5 12.8881 14.3881 13 14.25 13H13.75C13.6119 13 13.5 12.8881 13.5 12.75V12.25Z" fill="#5664C4"/>
<path d="M13.75 14C13.6119 14 13.5 14.1119 13.5 14.25V14.75C13.5 14.8881 13.6119 15 13.75 15H14.25C14.3881 15 14.5 14.8881 14.5 14.75V14.25C14.5 14.1119 14.3881 14 14.25 14H13.75Z" fill="#5664C4"/>
<path d="M2.75 10C2.61193 10 2.5 10.1119 2.5 10.25V10.75C2.5 10.8881 2.61193 11 2.75 11H3.25C3.38807 11 3.5 10.8881 3.5 10.75V10.25C3.5 10.1119 3.38807 10 3.25 10H2.75Z" fill="#5664C4"/>
<path d="M2.75 12C2.61193 12 2.5 12.1119 2.5 12.25V12.75C2.5 12.8881 2.61193 13 2.75 13H3.25C3.38807 13 3.5 12.8881 3.5 12.75V12.25C3.5 12.1119 3.38807 12 3.25 12H2.75Z" fill="#5664C4"/>
<path d="M2.5 14.25C2.5 14.1119 2.61193 14 2.75 14H3.25C3.38807 14 3.5 14.1119 3.5 14.25V14.75C3.5 14.8881 3.38807 15 3.25 15H2.75C2.61193 15 2.5 14.8881 2.5 14.75V14.25Z" fill="#5664C4"/>
<path d="M5.5 2C5.5 1.44772 5.94772 1 6.5 1H10.5C11.0523 1 11.5 1.44772 11.5 2V3C12.0523 3 12.5 3.44772 12.5 4V8H15.5C16.0523 8 16.5 8.44772 16.5 9V16C16.5 16.5523 16.0523 17 15.5 17H1.5C0.947716 17 0.5 16.5523 0.5 16V9C0.5 8.44772 0.947715 8 1.5 8H4.5V4C4.5 3.44772 4.94771 3 5.5 3V2ZM7.5 16H9.5V13H7.5V16ZM10.5 16H11.5V4L5.5 4V16H6.5V13C6.5 12.4477 6.94772 12 7.5 12H9.5C10.0523 12 10.5 12.4477 10.5 13V16ZM10.5 2H6.5V3H10.5V2ZM12.5 9V16H15.5V9H12.5ZM4.5 16V9H1.5V16H4.5Z" fill="#5664C4"/>
<path d="M9 6.03437V7.13484L9.95302 6.58461L10.453 7.45064L9.49998 8.00088L10.453 8.55112L9.95303 9.41714L9 8.86691V9.96738H8V8.86689L7.04694 9.41714L6.54694 8.55112L7.49998 8.00088L6.54694 7.45064L7.04694 6.58461L8 7.13486V6.03437H9Z" stroke="#5664C4" stroke-width="0.3" stroke-linecap="square" stroke-linejoin="round"/>
<path d="M13.75 10C13.6119 10 13.5 10.1119 13.5 10.25V10.75C13.5 10.8881 13.6119 11 13.75 11H14.25C14.3881 11 14.5 10.8881 14.5 10.75V10.25C14.5 10.1119 14.3881 10 14.25 10H13.75Z" stroke="#5664C4" stroke-width="0.3" stroke-linecap="square" stroke-linejoin="round"/>
<path d="M13.5 12.25C13.5 12.1119 13.6119 12 13.75 12H14.25C14.3881 12 14.5 12.1119 14.5 12.25V12.75C14.5 12.8881 14.3881 13 14.25 13H13.75C13.6119 13 13.5 12.8881 13.5 12.75V12.25Z" stroke="#5664C4" stroke-width="0.3" stroke-linecap="square" stroke-linejoin="round"/>
<path d="M13.75 14C13.6119 14 13.5 14.1119 13.5 14.25V14.75C13.5 14.8881 13.6119 15 13.75 15H14.25C14.3881 15 14.5 14.8881 14.5 14.75V14.25C14.5 14.1119 14.3881 14 14.25 14H13.75Z" stroke="#5664C4" stroke-width="0.3" stroke-linecap="square" stroke-linejoin="round"/>
<path d="M2.75 10C2.61193 10 2.5 10.1119 2.5 10.25V10.75C2.5 10.8881 2.61193 11 2.75 11H3.25C3.38807 11 3.5 10.8881 3.5 10.75V10.25C3.5 10.1119 3.38807 10 3.25 10H2.75Z" stroke="#5664C4" stroke-width="0.3" stroke-linecap="square" stroke-linejoin="round"/>
<path d="M2.75 12C2.61193 12 2.5 12.1119 2.5 12.25V12.75C2.5 12.8881 2.61193 13 2.75 13H3.25C3.38807 13 3.5 12.8881 3.5 12.75V12.25C3.5 12.1119 3.38807 12 3.25 12H2.75Z" stroke="#5664C4" stroke-width="0.3" stroke-linecap="square" stroke-linejoin="round"/>
<path d="M2.5 14.25C2.5 14.1119 2.61193 14 2.75 14H3.25C3.38807 14 3.5 14.1119 3.5 14.25V14.75C3.5 14.8881 3.38807 15 3.25 15H2.75C2.61193 15 2.5 14.8881 2.5 14.75V14.25Z" stroke="#5664C4" stroke-width="0.3" stroke-linecap="square" stroke-linejoin="round"/>
<path d="M5.5 2C5.5 1.44772 5.94772 1 6.5 1H10.5C11.0523 1 11.5 1.44772 11.5 2V3C12.0523 3 12.5 3.44772 12.5 4V8H15.5C16.0523 8 16.5 8.44772 16.5 9V16C16.5 16.5523 16.0523 17 15.5 17H1.5C0.947716 17 0.5 16.5523 0.5 16V9C0.5 8.44772 0.947715 8 1.5 8H4.5V4C4.5 3.44772 4.94771 3 5.5 3V2ZM7.5 16H9.5V13H7.5V16ZM10.5 16H11.5V4L5.5 4V16H6.5V13C6.5 12.4477 6.94772 12 7.5 12H9.5C10.0523 12 10.5 12.4477 10.5 13V16ZM10.5 2H6.5V3H10.5V2ZM12.5 9V16H15.5V9H12.5ZM4.5 16V9H1.5V16H4.5Z" stroke="#5664C4" stroke-width="0.3" stroke-linecap="square" stroke-linejoin="round"/>
</svg>
