<svg width="24" height="23" viewBox="0 0 24 23" fill="none" xmlns="http://www.w3.org/2000/svg">
<path d="M13.0165 2.15626C12.4551 1.59489 11.5449 1.59488 10.9835 2.15626L1.42927 11.7105C1.14858 11.9912 1.14858 12.4463 1.42927 12.727C1.70996 13.0077 2.16504 13.0077 2.44573 12.727L3.375 11.7977V19.4063C3.375 20.5971 4.34039 21.5625 5.53125 21.5625H18.4688C19.6596 21.5625 20.625 20.5971 20.625 19.4063V11.7977L21.5543 12.727C21.835 13.0077 22.29 13.0077 22.5707 12.727C22.8514 12.4463 22.8514 11.9912 22.5707 11.7105L19.1875 8.3273V3.59376C19.1875 3.19681 18.8657 2.87501 18.4688 2.87501H17.0312C16.6343 2.87501 16.3125 3.19681 16.3125 3.59376V5.4523L13.0165 2.15626ZM19.1875 10.3602V19.4063C19.1875 19.8032 18.8657 20.125 18.4688 20.125H5.53125C5.1343 20.125 4.8125 19.8032 4.8125 19.4063V10.3602L12 3.17273L19.1875 10.3602Z" fill="black"/>
</svg>
