<svg width="20" height="20" viewBox="0 0 20 20" fill="none" xmlns="http://www.w3.org/2000/svg">
<g clip-path="url(#clip0_589_1902)">
<path fill-rule="evenodd" clip-rule="evenodd" d="M10.0001 4.99996C10.3316 4.99996 10.6495 4.86826 10.884 4.63384C11.1184 4.39942 11.2501 4.08148 11.2501 3.74996C11.2501 3.41844 11.1184 3.1005 10.884 2.86608C10.6495 2.63166 10.3316 2.49996 10.0001 2.49996C9.66856 2.49996 9.35062 2.63166 9.1162 2.86608C8.88178 3.1005 8.75008 3.41844 8.75008 3.74996C8.75008 4.08148 8.88178 4.39942 9.1162 4.63384C9.35062 4.86826 9.66856 4.99996 10.0001 4.99996ZM10.0001 5.83329C10.5526 5.83329 11.0825 5.6138 11.4732 5.2231C11.8639 4.8324 12.0834 4.30249 12.0834 3.74996C12.0834 3.19743 11.8639 2.66752 11.4732 2.27682C11.0825 1.88612 10.5526 1.66663 10.0001 1.66663C9.44755 1.66663 8.91764 1.88612 8.52694 2.27682C8.13624 2.66752 7.91675 3.19743 7.91675 3.74996C7.91675 4.30249 8.13624 4.8324 8.52694 5.2231C8.91764 5.6138 9.44755 5.83329 10.0001 5.83329Z" fill="black"/>
<path fill-rule="evenodd" clip-rule="evenodd" d="M7.23909 7.63086C7.42974 7.66715 7.60174 7.76884 7.72542 7.91839C7.8491 8.06793 7.91672 8.25596 7.91659 8.45003V17.0834C7.91659 17.1939 7.96049 17.2998 8.03863 17.378C8.11677 17.4561 8.22275 17.5 8.33326 17.5H8.36951C8.47353 17.5 8.57379 17.4611 8.65058 17.391C8.72738 17.3208 8.77515 17.2245 8.78451 17.1209L9.16659 12.9167C9.16659 12.6957 9.25439 12.4837 9.41067 12.3274C9.56695 12.1712 9.77891 12.0834 9.99993 12.0834C10.2209 12.0834 10.4329 12.1712 10.5892 12.3274C10.7455 12.4837 10.8333 12.6957 10.8333 12.9167L11.2153 17.1209C11.2247 17.2245 11.2725 17.3208 11.3493 17.391C11.4261 17.4611 11.5263 17.5 11.6303 17.5H11.6666C11.7771 17.5 11.8831 17.4561 11.9612 17.378C12.0394 17.2998 12.0833 17.1939 12.0833 17.0834V8.46544C12.0832 8.27145 12.1509 8.08352 12.2746 7.93406C12.3982 7.7846 12.5702 7.68297 12.7608 7.64669C13.4924 7.50753 14.2662 7.31461 15.1166 7.06669C15.1691 7.05137 15.2181 7.02586 15.2608 6.9916C15.3035 6.95734 15.339 6.91502 15.3653 6.86704C15.3916 6.81906 15.4082 6.76637 15.4141 6.71198C15.4201 6.65759 15.4152 6.60256 15.3999 6.55003C15.3846 6.4975 15.3591 6.4485 15.3248 6.40583C15.2906 6.36317 15.2482 6.32766 15.2003 6.30135C15.1523 6.27504 15.0996 6.25844 15.0452 6.25249C14.9908 6.24655 14.9358 6.25137 14.8833 6.26669C12.9524 6.82919 11.4708 7.09003 10.0016 7.08336C8.53076 7.07669 7.04743 6.80253 5.11118 6.26544C5.05809 6.24961 5.00237 6.24453 4.94729 6.25049C4.89222 6.25645 4.83888 6.27333 4.7904 6.30015C4.74193 6.32697 4.69929 6.36318 4.66497 6.40668C4.63066 6.45018 4.60537 6.50008 4.59058 6.55346C4.57578 6.60685 4.57178 6.66266 4.57881 6.71761C4.58584 6.77256 4.60376 6.82556 4.63152 6.8735C4.65927 6.92145 4.69631 6.96337 4.74047 6.99683C4.78463 7.03029 4.83501 7.05461 4.88868 7.06836C5.73576 7.30336 6.50784 7.49169 7.23909 7.63086ZM9.57409 17.4179C9.50096 17.6812 9.34357 17.9133 9.12602 18.0786C8.90847 18.2439 8.64275 18.3334 8.36951 18.3334H8.33326C8.00174 18.3334 7.6838 18.2017 7.44938 17.9672C7.21496 17.7328 7.08326 17.4149 7.08326 17.0834V8.45003C6.32243 8.30503 5.52701 8.11003 4.66576 7.87086C4.50429 7.83 4.35262 7.75728 4.21965 7.65698C4.08669 7.55668 3.9751 7.43082 3.89146 7.28679C3.80782 7.14276 3.75381 6.98346 3.73259 6.81827C3.71138 6.65307 3.72339 6.48529 3.76793 6.3248C3.81247 6.16431 3.88863 6.01434 3.99194 5.8837C4.09525 5.75306 4.22363 5.64438 4.36954 5.56405C4.51544 5.48372 4.67593 5.43336 4.84157 5.41592C5.00721 5.39849 5.17466 5.41433 5.33409 5.46253C7.23826 5.99044 8.64034 6.24378 10.0053 6.25003C11.3662 6.25586 12.7628 6.01669 14.6503 5.46669C14.8087 5.41821 14.9751 5.40167 15.1398 5.41804C15.3046 5.4344 15.4645 5.48334 15.6102 5.56201C15.7559 5.64069 15.8845 5.74753 15.9886 5.87633C16.0927 6.00513 16.1701 6.15332 16.2164 6.3123C16.2627 6.47128 16.277 6.63788 16.2584 6.80242C16.2398 6.96696 16.1887 7.12616 16.108 7.27078C16.0274 7.4154 15.9188 7.54255 15.7886 7.64485C15.6583 7.74715 15.5091 7.82255 15.3495 7.86669C14.4812 8.12003 13.6812 8.32003 12.9166 8.46544V17.0834C12.9166 17.4149 12.7849 17.7328 12.5505 17.9672C12.3161 18.2017 11.9981 18.3334 11.6666 18.3334H11.6303C11.3184 18.3334 11.0177 18.2168 10.7874 18.0065C10.557 17.7962 10.4136 17.5073 10.3853 17.1967L10.0033 12.9925C10.0011 12.968 9.99995 12.9434 9.99993 12.9188C9.99993 12.9432 9.99882 12.9677 9.99659 12.9921L9.61409 17.1963C9.60746 17.2712 9.59407 17.3454 9.57409 17.4179Z" fill="black"/>
</g>
<defs>
<clipPath id="clip0_589_1902">
<rect width="20" height="20" fill="white"/>
</clipPath>
</defs>
</svg>
