<svg width="20" height="20" viewBox="0 0 20 20" fill="none" xmlns="http://www.w3.org/2000/svg">
<path d="M15.8334 9.16663C15.8334 10.7137 15.2188 12.1975 14.1249 13.2914C13.0309 14.3854 11.5472 15 10.0001 15M10.0001 15C8.45299 15 6.96925 14.3854 5.87529 13.2914C4.78133 12.1975 4.16675 10.7137 4.16675 9.16663M10.0001 15V18.3333M10.0001 18.3333H6.66675M10.0001 18.3333H13.3334M10.0001 11.6666C9.33704 11.6666 8.70115 11.4032 8.23231 10.9344C7.76347 10.4656 7.50008 9.82967 7.50008 9.16663V4.16663C7.50008 3.50358 7.76347 2.8677 8.23231 2.39886C8.70115 1.93002 9.33704 1.66663 10.0001 1.66663C10.6631 1.66663 11.299 1.93002 11.7678 2.39886C12.2367 2.8677 12.5001 3.50358 12.5001 4.16663V9.16663C12.5001 9.82967 12.2367 10.4656 11.7678 10.9344C11.299 11.4032 10.6631 11.6666 10.0001 11.6666Z" stroke="#3F3F46" stroke-width="1.5" stroke-linecap="round" stroke-linejoin="round"/>
</svg>
