<svg width="29" height="28" viewBox="0 0 29 28" fill="none" xmlns="http://www.w3.org/2000/svg">
<path d="M19.125 21.6666H23.9167V19.7499C23.9166 19.1524 23.7304 18.5698 23.384 18.083C23.0375 17.5962 22.548 17.2295 21.9835 17.0338C21.4189 16.838 20.8075 16.8231 20.234 16.9909C19.6606 17.1587 19.1537 17.5011 18.7838 17.9703M19.125 21.6666H9.54167M19.125 21.6666V19.7499C19.125 19.1213 19.0042 18.5204 18.7838 17.9703M18.7838 17.9703C18.428 17.0809 17.8138 16.3186 17.0205 15.7816C16.2272 15.2446 15.2913 14.9576 14.3333 14.9576C13.3754 14.9576 12.4394 15.2446 11.6462 15.7816C10.8529 16.3186 10.2387 17.0809 9.88283 17.9703M9.54167 21.6666H4.75V19.7499C4.75004 19.1524 4.93624 18.5698 5.2827 18.083C5.62916 17.5962 6.11868 17.2295 6.6832 17.0338C7.24772 16.838 7.85919 16.8231 8.43262 16.9909C9.00605 17.1587 9.51294 17.5011 9.88283 17.9703M9.54167 21.6666V19.7499C9.54167 19.1213 9.66242 18.5204 9.88283 17.9703M17.2083 9.20825C17.2083 9.97075 16.9054 10.702 16.3663 11.2412C15.8271 11.7804 15.0958 12.0833 14.3333 12.0833C13.5708 12.0833 12.8396 11.7804 12.3004 11.2412C11.7612 10.702 11.4583 9.97075 11.4583 9.20825C11.4583 8.44575 11.7612 7.71449 12.3004 7.17532C12.8396 6.63615 13.5708 6.33325 14.3333 6.33325C15.0958 6.33325 15.8271 6.63615 16.3663 7.17532C16.9054 7.71449 17.2083 8.44575 17.2083 9.20825ZM22.9583 12.0833C22.9583 12.5916 22.7564 13.0791 22.397 13.4385C22.0375 13.798 21.55 13.9999 21.0417 13.9999C20.5333 13.9999 20.0458 13.798 19.6864 13.4385C19.3269 13.0791 19.125 12.5916 19.125 12.0833C19.125 11.5749 19.3269 11.0874 19.6864 10.728C20.0458 10.3685 20.5333 10.1666 21.0417 10.1666C21.55 10.1666 22.0375 10.3685 22.397 10.728C22.7564 11.0874 22.9583 11.5749 22.9583 12.0833ZM9.54167 12.0833C9.54167 12.5916 9.33973 13.0791 8.98029 13.4385C8.62084 13.798 8.13333 13.9999 7.625 13.9999C7.11667 13.9999 6.62916 13.798 6.26971 13.4385C5.91027 13.0791 5.70833 12.5916 5.70833 12.0833C5.70833 11.5749 5.91027 11.0874 6.26971 10.728C6.62916 10.3685 7.11667 10.1666 7.625 10.1666C8.13333 10.1666 8.62084 10.3685 8.98029 10.728C9.33973 11.0874 9.54167 11.5749 9.54167 12.0833Z" stroke="#1F2937" stroke-width="1.5" stroke-linecap="round" stroke-linejoin="round"/>
</svg>
