<svg width="20" height="20" viewBox="0 0 20 20" fill="none" xmlns="http://www.w3.org/2000/svg">
<path d="M13.75 4.16663H17C17.1326 4.16663 17.2598 4.2193 17.3536 4.31307C17.4473 4.40684 17.5 4.53402 17.5 4.66663V17C17.5 17.1326 17.4473 17.2597 17.3536 17.3535C17.2598 17.4473 17.1326 17.5 17 17.5H3C2.86739 17.5 2.74021 17.4473 2.64645 17.3535C2.55268 17.2597 2.5 17.1326 2.5 17V4.66663C2.5 4.53402 2.55268 4.40684 2.64645 4.31307C2.74021 4.2193 2.86739 4.16663 3 4.16663H6.25" stroke="black" stroke-width="1.5" stroke-linecap="round" stroke-linejoin="round"/>
<path d="M10.0001 6.66663L9.16678 4.58329M13.5659 5.27413L13.7368 4.24913C13.7459 4.19451 13.7459 4.13875 13.7368 4.08413L13.5651 3.05913C13.5003 2.67025 13.2997 2.31696 12.9989 2.06201C12.6982 1.80706 12.3169 1.66697 11.9226 1.66663H8.07845C7.68391 1.66658 7.30216 1.80649 7.00109 2.06147C6.70003 2.31645 6.49918 2.66997 6.43428 3.05913L6.26345 4.08413C6.25431 4.13875 6.25431 4.19451 6.26345 4.24913L6.43428 5.27413C6.49918 5.66328 6.70003 6.0168 7.00109 6.27178C7.30216 6.52676 7.68391 6.66667 8.07845 6.66663H11.9218C12.3163 6.66667 12.6981 6.52676 12.9991 6.27178C13.3002 6.0168 13.501 5.66328 13.5659 5.27413Z" stroke="black" stroke-width="1.5" stroke-linecap="round" stroke-linejoin="round"/>
</svg>
