<svg width="24" height="23" viewBox="0 0 24 23" fill="none" xmlns="http://www.w3.org/2000/svg">
<path d="M12 3.95032L10.9697 2.89129C8.54842 0.402596 4.11408 1.26169 2.51301 4.38846C1.81929 5.74324 1.62098 7.65152 2.66812 10.0625H1.11847C-1.94091 1.87285 7.1046 -2.63033 11.7475 1.64318C11.8332 1.72208 11.9174 1.80397 12 1.88888C12.0826 1.80397 12.1668 1.72209 12.2525 1.64319C16.8954 -2.63034 25.9409 1.87284 22.8815 10.0625H21.3319C22.379 7.65152 22.1807 5.74324 21.487 4.38846C19.8859 1.26169 15.4516 0.402596 13.0303 2.89129L12 3.95032Z" fill="#1F2937"/>
<path d="M3.67984 14.375H5.56997C7.10252 16.0759 9.19878 17.9082 12 19.8297C14.8012 17.9082 16.8975 16.0759 18.43 14.375H20.3202C18.5013 16.6268 15.807 19.047 12 21.5625C8.19304 19.047 5.49869 16.6268 3.67984 14.375Z" fill="#1F2937"/>
<path d="M15.5423 4.76431C15.4282 4.47895 15.1452 4.29774 14.8383 4.31344C14.5313 4.32914 14.2683 4.53827 14.1839 4.83379L11.8865 12.8747L9.79234 7.63931C9.69321 7.39149 9.46492 7.21901 9.19944 7.19136C8.93396 7.16372 8.67502 7.28547 8.52696 7.50756L5.86534 11.5H1.21875C0.821795 11.5 0.5 11.8218 0.5 12.2188C0.5 12.6157 0.821795 12.9375 1.21875 12.9375H6.25C6.49032 12.9375 6.71473 12.8174 6.84804 12.6174L8.96511 9.44183L11.3327 15.3607C11.4468 15.6461 11.7298 15.8273 12.0367 15.8116C12.3437 15.7959 12.6067 15.5867 12.6911 15.2912L14.9885 7.25029L17.0827 12.4857C17.1918 12.7586 17.4561 12.9375 17.75 12.9375H22.7812C23.1782 12.9375 23.5 12.6157 23.5 12.2188C23.5 11.8218 23.1782 11.5 22.7812 11.5H18.2366L15.5423 4.76431Z" fill="#1F2937"/>
</svg>
