<svg width="22" height="20" viewBox="0 0 22 20" fill="none" xmlns="http://www.w3.org/2000/svg">
<path d="M8.24995 20L7.84995 16.8C7.63328 16.7167 7.42912 16.6167 7.23745 16.5C7.04578 16.3833 6.85828 16.2583 6.67495 16.125L3.69995 17.375L0.949951 12.625L3.52495 10.675C3.50828 10.5583 3.49995 10.4458 3.49995 10.3375V9.6625C3.49995 9.55417 3.50828 9.44167 3.52495 9.325L0.949951 7.375L3.69995 2.625L6.67495 3.875C6.85828 3.74167 7.04995 3.61667 7.24995 3.5C7.44995 3.38333 7.64995 3.28333 7.84995 3.2L8.24995 0H13.75L14.15 3.2C14.3666 3.28333 14.5708 3.38333 14.7625 3.5C14.9541 3.61667 15.1416 3.74167 15.325 3.875L18.3 2.625L21.05 7.375L18.475 9.325C18.4916 9.44167 18.5 9.55417 18.5 9.6625V10.3375C18.5 10.4458 18.4833 10.5583 18.45 10.675L21.025 12.625L18.275 17.375L15.325 16.125C15.1416 16.2583 14.95 16.3833 14.75 16.5C14.55 16.6167 14.35 16.7167 14.15 16.8L13.75 20H8.24995ZM11.05 13.5C12.0166 13.5 12.8416 13.1583 13.525 12.475C14.2083 11.7917 14.55 10.9667 14.55 10C14.55 9.03333 14.2083 8.20833 13.525 7.525C12.8416 6.84167 12.0166 6.5 11.05 6.5C10.0666 6.5 9.23745 6.84167 8.56245 7.525C7.88745 8.20833 7.54995 9.03333 7.54995 10C7.54995 10.9667 7.88745 11.7917 8.56245 12.475C9.23745 13.1583 10.0666 13.5 11.05 13.5Z" fill="#1D1B20"/>
</svg>
