<svg width="24" height="24" viewBox="0 0 24 24" fill="none" xmlns="http://www.w3.org/2000/svg">
<path d="M5.19824 0.5C5.5952 0.5 5.91699 0.821795 5.91699 1.21875V1.9375H17.417V1.21875C17.417 0.821795 17.7388 0.5 18.1357 0.5C18.5327 0.5 18.8545 0.821795 18.8545 1.21875V1.9375H20.292C21.8798 1.9375 23.167 3.22468 23.167 4.8125V20.625C23.167 22.2128 21.8798 23.5 20.292 23.5H3.04199C1.45417 23.5 0.166992 22.2128 0.166992 20.625V4.8125C0.166992 3.22468 1.45417 1.9375 3.04199 1.9375H4.47949V1.21875C4.47949 0.821795 4.80129 0.5 5.19824 0.5ZM3.04199 3.375C2.24808 3.375 1.60449 4.01859 1.60449 4.8125V6.25H21.7295V4.8125C21.7295 4.01859 21.0859 3.375 20.292 3.375H3.04199ZM21.7295 7.6875H1.60449V20.625C1.60449 21.4189 2.24808 22.0625 3.04199 22.0625H20.292C21.0859 22.0625 21.7295 21.4189 21.7295 20.625V7.6875Z" fill="#1F2937"/>
</svg>
